<?xml version="1.0" encoding="UTF-8"?>
<svg width="189px" height="5px" viewBox="0 0 189 5" version="1.1" xmlns="http://www.w3.org/2000/svg" xmlns:xlink="http://www.w3.org/1999/xlink">
    <!-- Generator: Sketch 54.1 (76490) - https://sketchapp.com -->
    <title>line</title>
    <desc>Created with Sketch.</desc>
    <g id="Page-1" stroke="none" stroke-width="1" fill="none" fill-rule="evenodd">
        <path d="M187.633659,3.03196978 C183.008659,1.47959433 176.690659,-0.418972811 170.925659,0.727350702 C167.224659,1.46313277 164.775659,3.54177945 160.211659,2.41241634 C157.801659,1.81580932 155.763659,0.872012938 153.193659,0.424058842 C147.990659,-0.481826058 143.484659,0.97477301 138.904659,2.04078404 C134.200659,3.13522868 130.655659,3.07137776 126.096659,1.9130822 C123.645659,1.29053575 121.246659,0.480926066 118.483659,0.243480464 C111.973659,-0.316212739 108.265659,2.97360605 102.096659,3.00253849 C98.8716586,3.01800239 95.9416586,2.36353048 93.0026586,1.70855973 C90.0476586,1.05059597 87.0856586,0.392133383 83.8076586,0.415079806 C81.2116586,0.433037877 78.8756586,0.937859198 76.5716586,1.480592 C71.6826586,2.63290154 68.1176586,3.00453383 63.0596586,1.82029884 C57.3336586,0.479928395 53.6356586,-0.0897415144 47.5256586,1.15485255 C42.8946586,2.0981501 39.3016586,2.86535879 34.2716586,2.07121299 C30.6836586,1.50503493 27.4276586,0.442016912 23.6796586,0.113284452 C21.2466586,-0.0997182204 18.9496586,0.0484358629 16.6976586,0.542781642 C12.9446586,1.36685755 4.17665858,5.25178685 1.27065858,1.61278335 C0.972658575,1.23965455 -0.210341425,1.37833077 0.0326585752,1.78288619 C1.11565858,3.5891688 4.88365858,4.13688996 8.36965858,3.76276349 C11.3506586,3.44251122 13.6296586,2.38847224 16.2896586,1.71753877 C21.6806586,0.357214912 25.7886586,1.41324924 30.8466586,2.45830918 C36.7906586,3.68544401 41.0596586,3.60812454 46.9386586,2.36552582 C52.0326586,1.28903925 55.7496586,1.15285721 60.7786586,2.37001534 C63.2326586,2.96412817 65.6176586,3.64902904 68.3986586,3.7418124 C71.0056586,3.82860974 73.3316586,3.37666497 75.6536586,2.83692517 C80.3116586,1.75395374 83.7376586,1.08800862 88.8306586,1.92305891 C94.2976586,2.81946594 99.6516586,4.73449464 105.627659,3.73931823 C108.498659,3.26093518 110.702659,2.16050451 113.486659,1.60230781 C118.352659,0.625588302 122.044659,2.12857905 126.256659,3.13822169 C131.658659,4.43269929 136.011659,3.92438612 141.194659,2.65684563 C145.917659,1.50204192 149.670659,0.60663256 154.698659,1.95797738 C157.271659,2.65036077 159.686659,3.78870292 162.733659,3.92638146 C165.393659,4.04610193 166.909659,3.36319641 168.935659,2.62791318 C175.100659,0.391135712 181.038659,1.98491449 186.630659,3.88797115 C187.688659,4.24763139 188.692659,3.38714051 187.633659,3.03196978" id="Fill-78" fill="#DEDEDE"></path>
    </g>
</svg>